REM DIRINDEX 1\6,1\2\7,1\2\8,1\2\9,1\3\10,1\3\11,1\4\12,1\4\13,1\4\14,1\5\15,1\5\16,1\5\17
REM DIRNAME folder01,folder02,folder03,folder04,folder05,folder06,folder07,folder08,folder09,folder10,folder11,folder12,folder13,folder14,folder15,folder16,folder17
TITLE ""
FILE "3Q_t_0771-0786.mp3" MP3
  TRACK 01 AUDIO
    TITLE "10:cjc041_3152"
    INDEX 01 00:00:00
  TRACK 02 AUDIO
    TITLE "0:"
    INDEX 01 00:00:72
  TRACK 03 AUDIO
    TITLE "11:cjc041_3153"
    INDEX 01 00:01:54
  TRACK 04 AUDIO
    TITLE "0:"
    INDEX 01 00:02:43
  TRACK 05 AUDIO
    TITLE "10:cjc041_3154"
    INDEX 01 00:03:25
  TRACK 06 AUDIO
    TITLE "0:"
    INDEX 01 00:04:33
  TRACK 07 AUDIO
    TITLE "11:cjc041_3155"
    INDEX 01 00:05:10
  TRACK 08 AUDIO
    TITLE "0:"
    INDEX 01 00:06:00
  TRACK 09 AUDIO
    TITLE "10:cjc041_3156"
    INDEX 01 00:06:47
  TRACK 10 AUDIO
    TITLE "0:"
    INDEX 01 00:07:52
  TRACK 11 AUDIO
    TITLE "11:cjc041_3157"
    INDEX 01 00:08:32
  TRACK 12 AUDIO
    TITLE "0:"
    INDEX 01 00:10:49
  TRACK 13 AUDIO
    TITLE "10:cjc041_3158"
    INDEX 01 00:11:33
  TRACK 14 AUDIO
    TITLE "0:"
    INDEX 01 00:12:61
  TRACK 15 AUDIO
    TITLE "11:cjc041_3159"
    INDEX 01 00:13:35
  TRACK 16 AUDIO
    TITLE "0:"
    INDEX 01 00:14:70
  TRACK 17 AUDIO
    TITLE "10:cjc041_3160"
    INDEX 01 00:15:48
  TRACK 18 AUDIO
    TITLE "0:"
    INDEX 01 00:16:44
  TRACK 19 AUDIO
    TITLE "11:cjc041_3161"
    INDEX 01 00:17:25
  TRACK 20 AUDIO
    TITLE "0:"
    INDEX 01 00:18:27
  TRACK 21 AUDIO
    TITLE "10:cjc041_3162"
    INDEX 01 00:19:03
  TRACK 22 AUDIO
    TITLE "0:"
    INDEX 01 00:20:16
  TRACK 23 AUDIO
    TITLE "11:cjc041_3163"
    INDEX 01 00:20:71
  TRACK 24 AUDIO
    TITLE "0:"
    INDEX 01 00:23:59
  TRACK 25 AUDIO
    TITLE "10:cjc041_3164"
    INDEX 01 00:24:37
  TRACK 26 AUDIO
    TITLE "0:"
    INDEX 01 00:25:39
  TRACK 27 AUDIO
    TITLE "11:cjc041_3165"
    INDEX 01 00:26:18
  TRACK 28 AUDIO
    TITLE "0:"
    INDEX 01 00:26:73
  TRACK 29 AUDIO
    TITLE "10:cjc041_3166"
    INDEX 01 00:27:49
  TRACK 30 AUDIO
    TITLE "0:"
    INDEX 01 00:28:72
  TRACK 31 AUDIO
    TITLE "11:cjc041_3167"
    INDEX 01 00:29:48
  TRACK 32 AUDIO
    TITLE "0:"
    INDEX 01 00:30:55
  TRACK 33 AUDIO
    TITLE "10:cjc041_3168"
    INDEX 01 00:31:31
  TRACK 34 AUDIO
    TITLE "0:"
    INDEX 01 00:32:45
  TRACK 35 AUDIO
    TITLE "11:cjc041_3169"
    INDEX 01 00:33:21
  TRACK 36 AUDIO
    TITLE "0:"
    INDEX 01 00:34:26
  TRACK 37 AUDIO
    TITLE "10:cjc041_3170"
    INDEX 01 00:35:08
  TRACK 38 AUDIO
    TITLE "0:"
    INDEX 01 00:36:17
  TRACK 39 AUDIO
    TITLE "11:cjc041_3171"
    INDEX 01 00:36:74
  TRACK 40 AUDIO
    TITLE "0:"
    INDEX 01 00:38:41
  TRACK 41 AUDIO
    TITLE "10:cjc041_3172"
    INDEX 01 00:39:17
  TRACK 42 AUDIO
    TITLE "0:"
    INDEX 01 00:40:36
  TRACK 43 AUDIO
    TITLE "11:cjc041_3173"
    INDEX 01 00:41:20
  TRACK 44 AUDIO
    TITLE "0:"
    INDEX 01 00:42:06
  TRACK 45 AUDIO
    TITLE "10:cjc041_3174"
    INDEX 01 00:42:66
  TRACK 46 AUDIO
    TITLE "0:"
    INDEX 01 00:44:18
  TRACK 47 AUDIO
    TITLE "11:cjc041_3175"
    INDEX 01 00:44:65
  TRACK 48 AUDIO
    TITLE "0:"
    INDEX 01 00:46:07
  TRACK 49 AUDIO
    TITLE "10:cjc041_3176"
    INDEX 01 00:46:56
  TRACK 50 AUDIO
    TITLE "0:"
    INDEX 01 00:47:58
  TRACK 51 AUDIO
    TITLE "11:cjc041_3177"
    INDEX 01 00:48:34
  TRACK 52 AUDIO
    TITLE "0:"
    INDEX 01 00:50:74
  TRACK 53 AUDIO
    TITLE "10:cjc041_3178"
    INDEX 01 00:51:52
  TRACK 54 AUDIO
    TITLE "0:"
    INDEX 01 00:52:65
  TRACK 55 AUDIO
    TITLE "11:cjc041_3179"
    INDEX 01 00:53:47
  TRACK 56 AUDIO
    TITLE "0:"
    INDEX 01 00:55:34
  TRACK 57 AUDIO
    TITLE "10:cjc041_3180"
    INDEX 01 00:56:12
  TRACK 58 AUDIO
    TITLE "0:"
    INDEX 01 00:57:19
  TRACK 59 AUDIO
    TITLE "11:cjc041_3181"
    INDEX 01 00:57:74
  TRACK 60 AUDIO
    TITLE "0:"
    INDEX 01 00:58:73
  TRACK 61 AUDIO
    TITLE "10:cjc041_3182"
    INDEX 01 00:59:55
  TRACK 62 AUDIO
    TITLE "0:"
    INDEX 01 01:00:59
  TRACK 63 AUDIO
    TITLE "11:cjc041_3183"
    INDEX 01 01:01:33
  TRACK 64 AUDIO
    TITLE "0:"
    INDEX 01 01:02:55
